<svg width="23" height="23" viewBox="0 0 23 23" fill="none" xmlns="http://www.w3.org/2000/svg">
<path d="M21.95 8.29765H15.8953C15.2458 8.29765 14.7234 7.77519 14.7234 7.12578V1.07109C14.7234 0.748825 14.9871 0.485153 15.3093 0.485153H17.2625C17.5847 0.485153 17.8484 0.748825 17.8484 1.07109V5.17265H21.95C22.2722 5.17265 22.5359 5.43633 22.5359 5.75859V7.71172C22.5359 8.03398 22.2722 8.29765 21.95 8.29765ZM8.47339 7.12578V1.07109C8.47339 0.748825 8.20972 0.485153 7.88745 0.485153H5.93433C5.61206 0.485153 5.34839 0.748825 5.34839 1.07109V5.17265H1.24683C0.924561 5.17265 0.660889 5.43633 0.660889 5.75859V7.71172C0.660889 8.03398 0.924561 8.29765 1.24683 8.29765H7.30151C7.95093 8.29765 8.47339 7.77519 8.47339 7.12578ZM8.47339 21.7742V15.7195C8.47339 15.0701 7.95093 14.5477 7.30151 14.5477H1.24683C0.924561 14.5477 0.660889 14.8113 0.660889 15.1336V17.0867C0.660889 17.409 0.924561 17.6727 1.24683 17.6727H5.34839V21.7742C5.34839 22.0965 5.61206 22.3602 5.93433 22.3602H7.88745C8.20972 22.3602 8.47339 22.0965 8.47339 21.7742ZM17.8484 21.7742V17.6727H21.95C22.2722 17.6727 22.5359 17.409 22.5359 17.0867V15.1336C22.5359 14.8113 22.2722 14.5477 21.95 14.5477H15.8953C15.2458 14.5477 14.7234 15.0701 14.7234 15.7195V21.7742C14.7234 22.0965 14.9871 22.3602 15.3093 22.3602H17.2625C17.5847 22.3602 17.8484 22.0965 17.8484 21.7742Z" fill="#F20A0A"/>
</svg>
