<svg width="58" height="58" viewBox="0 0 58 58" fill="none" xmlns="http://www.w3.org/2000/svg">
<g filter="url(#filter0_d_103_18)">
<g clip-path="url(#clip0_103_18)">
<rect width="50" height="50" transform="translate(4)" fill="#F6D0C8"/>
<path d="M38.9438 0.0250219C38.8375 -0.0937281 35.0094 0.071897 31.6781 3.68752C28.3469 7.30002 28.8594 11.4438 28.9344 11.55C29.0094 11.6563 33.6844 11.8219 36.6688 7.61877C39.6531 3.41565 39.05 0.146897 38.9438 0.0250219V0.0250219ZM49.3 36.6906C49.15 36.3906 42.0344 32.8344 42.6969 25.9969C43.3594 19.1563 47.9313 17.2813 48.0031 17.0781C48.075 16.875 46.1375 14.6094 44.0844 13.4625C42.5769 12.6539 40.9085 12.1907 39.2 12.1063C38.8625 12.0969 37.6906 11.8094 35.2813 12.4688C33.6938 12.9031 30.1156 14.3094 29.1313 14.3656C28.1438 14.4219 25.2063 12.7344 22.0469 12.2875C20.025 11.8969 17.8813 12.6969 16.3469 13.3125C14.8156 13.925 11.9031 15.6688 9.86564 20.3031C7.82814 24.9344 8.89376 32.2719 9.65626 34.5531C10.4188 36.8313 11.6094 40.5656 13.6344 43.2906C15.4344 46.3656 17.8219 48.5 18.8188 49.225C19.8156 49.95 22.6281 50.4313 24.5781 49.4344C26.1469 48.4719 28.9781 47.9188 30.0969 47.9594C31.2125 48 33.4125 48.4406 35.6656 49.6438C37.45 50.2594 39.1375 50.0031 40.8281 49.3156C42.5188 48.625 44.9656 46.0063 47.8219 40.6969C48.9063 38.2281 49.4 36.8938 49.3 36.6906V36.6906Z" fill="white"/>
<path d="M38.9438 0.0250219C38.8375 -0.0937281 35.0094 0.071897 31.6781 3.68752C28.3469 7.30002 28.8594 11.4438 28.9344 11.55C29.0094 11.6563 33.6844 11.8219 36.6688 7.61877C39.6531 3.41565 39.05 0.146897 38.9438 0.0250219V0.0250219ZM49.3 36.6906C49.15 36.3906 42.0344 32.8344 42.6969 25.9969C43.3594 19.1563 47.9313 17.2813 48.0031 17.0781C48.075 16.875 46.1375 14.6094 44.0844 13.4625C42.5769 12.6539 40.9085 12.1907 39.2 12.1063C38.8625 12.0969 37.6906 11.8094 35.2813 12.4688C33.6938 12.9031 30.1156 14.3094 29.1313 14.3656C28.1438 14.4219 25.2063 12.7344 22.0469 12.2875C20.025 11.8969 17.8813 12.6969 16.3469 13.3125C14.8156 13.925 11.9031 15.6688 9.86564 20.3031C7.82814 24.9344 8.89376 32.2719 9.65626 34.5531C10.4188 36.8313 11.6094 40.5656 13.6344 43.2906C15.4344 46.3656 17.8219 48.5 18.8188 49.225C19.8156 49.95 22.6281 50.4313 24.5781 49.4344C26.1469 48.4719 28.9781 47.9188 30.0969 47.9594C31.2125 48 33.4125 48.4406 35.6656 49.6438C37.45 50.2594 39.1375 50.0031 40.8281 49.3156C42.5188 48.625 44.9656 46.0063 47.8219 40.6969C48.9063 38.2281 49.4 36.8938 49.3 36.6906V36.6906Z" fill="white"/>
</g>
</g>
<defs>
<filter id="filter0_d_103_18" x="0" y="0" width="58" height="58" filterUnits="userSpaceOnUse" color-interpolation-filters="sRGB">
<feFlood flood-opacity="0" result="BackgroundImageFix"/>
<feColorMatrix in="SourceAlpha" type="matrix" values="0 0 0 0 0 0 0 0 0 0 0 0 0 0 0 0 0 0 127 0" result="hardAlpha"/>
<feOffset dy="4"/>
<feGaussianBlur stdDeviation="2"/>
<feComposite in2="hardAlpha" operator="out"/>
<feColorMatrix type="matrix" values="0 0 0 0 0 0 0 0 0 0 0 0 0 0 0 0 0 0 0.25 0"/>
<feBlend mode="normal" in2="BackgroundImageFix" result="effect1_dropShadow_103_18"/>
<feBlend mode="normal" in="SourceGraphic" in2="effect1_dropShadow_103_18" result="shape"/>
</filter>
<clipPath id="clip0_103_18">
<rect width="50" height="50" fill="white" transform="translate(4)"/>
</clipPath>
</defs>
</svg>
