<svg width="30" height="172" viewBox="0 0 30 172" fill="none" xmlns="http://www.w3.org/2000/svg">
<g filter="url(#filter0_d_7_1345)">
<circle cx="15" cy="59" r="10" fill="#ABC6D6"/>
<circle cx="15" cy="59" r="9.5" stroke="white"/>
</g>
<circle cx="15" cy="10" r="9.5" fill="#404354" stroke="white"/>
<circle cx="15" cy="108" r="9.5" fill="#58D7C4" stroke="white"/>
<circle cx="15" cy="157" r="13.5" fill="#F2CEC6" stroke="white" stroke-width="3"/>
<circle cx="15" cy="24" r="1" fill="white"/>
<circle cx="15" cy="28" r="1" fill="white"/>
<circle cx="15" cy="32" r="1" fill="white"/>
<circle cx="15" cy="36" r="1" fill="white"/>
<circle cx="15" cy="40" r="1" fill="white"/>
<circle cx="15" cy="78" r="1" fill="white"/>
<circle cx="15" cy="82" r="1" fill="white"/>
<circle cx="15" cy="86" r="1" fill="white"/>
<circle cx="15" cy="90" r="1" fill="white"/>
<circle cx="15" cy="94" r="1" fill="white"/>
<circle cx="15" cy="126" r="1" fill="white"/>
<circle cx="15" cy="130" r="1" fill="white"/>
<circle cx="15" cy="134" r="1" fill="white"/>
<circle cx="15" cy="138" r="1" fill="white"/>
<defs>
<filter id="filter0_d_7_1345" x="1" y="48" width="28" height="28" filterUnits="userSpaceOnUse" color-interpolation-filters="sRGB">
<feFlood flood-opacity="0" result="BackgroundImageFix"/>
<feColorMatrix in="SourceAlpha" type="matrix" values="0 0 0 0 0 0 0 0 0 0 0 0 0 0 0 0 0 0 127 0" result="hardAlpha"/>
<feOffset dy="3"/>
<feGaussianBlur stdDeviation="2"/>
<feComposite in2="hardAlpha" operator="out"/>
<feColorMatrix type="matrix" values="0 0 0 0 0 0 0 0 0 0 0 0 0 0 0 0 0 0 0.2 0"/>
<feBlend mode="normal" in2="BackgroundImageFix" result="effect1_dropShadow_7_1345"/>
<feBlend mode="normal" in="SourceGraphic" in2="effect1_dropShadow_7_1345" result="shape"/>
</filter>
</defs>
</svg>
