<svg width="28" height="132" viewBox="0 0 28 132" fill="none" xmlns="http://www.w3.org/2000/svg">
<g clip-path="url(#clip0_7_1290)">
<path d="M10.5739 28V14.8616H7V10.1311H10.5739V6.0907C10.5739 2.9157 12.685 0 17.5494 0C19.5189 0 20.9753 0.18354 20.9753 0.18354L20.8606 4.60099C20.8606 4.60099 19.3753 4.58693 17.7545 4.58693C16.0003 4.58693 15.7193 5.37275 15.7193 6.67702V10.1311H21L20.7702 14.8616H15.7193V28H10.5739Z" fill="#B6CCDA"/>
</g>
<path d="M5.81341 112.397C7.22321 112.397 8.36607 111.254 8.36607 109.844C8.36607 108.434 7.22321 107.291 5.81341 107.291C4.40361 107.291 3.26074 108.434 3.26074 109.844C3.26074 111.254 4.40361 112.397 5.81341 112.397Z" fill="#B6CCDA"/>
<path d="M10.7765 114.331V128.493H15.1737V121.489C15.1737 119.641 15.5213 117.852 17.8127 117.852C20.0725 117.852 20.1005 119.965 20.1005 121.606V128.494H24.5V120.728C24.5 116.913 23.6787 113.981 19.2197 113.981C17.0788 113.981 15.6438 115.156 15.057 116.267H14.9975V114.331H10.7765ZM3.61084 114.331H8.01501V128.493H3.61084V114.331Z" fill="#B6CCDA"/>
<path d="M27.5836 57.7599C26.6094 58.1915 25.5629 58.4832 24.4628 58.615C25.5979 57.9358 26.4472 56.8667 26.8521 55.6074C25.7856 56.2408 24.6183 56.6867 23.4011 56.9257C22.5825 56.0517 21.4983 55.4724 20.3168 55.2777C19.1353 55.0831 17.9225 55.2839 16.8669 55.8491C15.8112 56.4144 14.9717 57.3123 14.4786 58.4035C13.9855 59.4947 13.8666 60.7182 14.1401 61.884C11.9791 61.7755 9.86499 61.2138 7.93509 60.2354C6.00519 59.257 4.30258 57.8837 2.93776 56.2047C2.47109 57.0097 2.20276 57.943 2.20276 58.937C2.20224 59.8318 2.4226 60.713 2.84429 61.5022C3.26597 62.2914 3.87595 62.9644 4.6201 63.4614C3.75708 63.4339 2.91311 63.2007 2.15843 62.7812V62.8512C2.15834 64.1062 2.59247 65.3226 3.38714 66.294C4.18182 67.2654 5.28809 67.9319 6.51826 68.1805C5.71768 68.3972 4.87832 68.4291 4.0636 68.2739C4.41068 69.3537 5.08676 70.2981 5.99719 70.9746C6.90762 71.6511 8.00683 72.0261 9.14093 72.0469C7.21573 73.5582 4.83813 74.378 2.39059 74.3744C1.95704 74.3745 1.52385 74.3491 1.09326 74.2985C3.57765 75.8959 6.46966 76.7436 9.42326 76.7404C19.4216 76.7404 24.8874 68.4594 24.8874 61.2774C24.8874 61.044 24.8816 60.8084 24.8711 60.575C25.9343 59.8062 26.852 58.8541 27.5813 57.7634L27.5836 57.7599Z" fill="#B6CCDA"/>
<defs>
<clipPath id="clip0_7_1290">
<rect width="14" height="28" fill="white" transform="translate(7)"/>
</clipPath>
</defs>
</svg>
